<svg id="account2" xmlns="http://www.w3.org/2000/svg" width="1076.064" height="755.228" viewBox="0 0 1076.064 755.228">
  <path id="Path_7" data-name="Path 7" d="M888.489,774.809c6.984,26.6,31.459,43.22,31.459,43.22s13.15-26.5,6.166-53.1-31.459-43.22-31.459-43.22S881.5,748.211,888.489,774.809Z" transform="translate(-676.571 -72.386)" fill="#3f3d56"/>
  <path id="Path_8" data-name="Path 8" d="M942.86,769.183c19.563,19.327,21.751,48.831,21.751,48.831s-29.528-1.831-49.091-21.159-21.751-48.831-21.751-48.831S923.3,749.855,942.86,769.183Z" transform="translate(-720.348 -72.386)" fill="#00c4cc"/>
  <path id="Path_9" data-name="Path 9" d="M360.952,674.194H324.111l-90.788-35.526s-64.472-26.315-59.209,23.684,14.473,117.1,14.473,117.1,28.947-13.158,44.736-9.21,5.263-80.262,5.263-80.262,128.945,61.841,140.787,53.946,14.473-63.157,14.473-63.157Z" transform="translate(570.378 -72.386)" fill="#2f2e41"/>
  <path id="Path_10" data-name="Path 10" d="M360.952,674.194H324.111l-90.788-35.526s-64.472-26.315-59.209,23.684,14.473,117.1,14.473,117.1,28.947-13.158,44.736-9.21,5.263-80.262,5.263-80.262,128.945,61.841,140.787,53.946,14.473-63.157,14.473-63.157Z" transform="translate(570.378 -72.386)" opacity="0.1"/>
  <path id="Path_11" data-name="Path 11" d="M464.364,558.82,419.778,622.88,315.833,709.72s-96.051,22.368-82.893,38.157,93.419-15.789,93.419-15.789,119.735-86.84,123.682-93.419,47.368-68.42,47.368-68.42Z" transform="translate(408.922 -72.386)" fill="#a0616a"/>
  <path id="Path_12" data-name="Path 12" d="M464.364,558.82,419.778,622.88,315.833,709.72s-96.051,22.368-82.893,38.157,93.419-15.789,93.419-15.789,119.735-86.84,123.682-93.419,47.368-68.42,47.368-68.42Z" transform="translate(408.922 -72.386)" opacity="0.1"/>
  <path id="Path_13" data-name="Path 13" d="M223.807,507.092,194.86,563.67s6.579,27.631,17.1,30.263,55.262-34.21,55.262-34.21Z" transform="translate(675.944 -72.386)" fill="#d0cde1"/>
  <path id="Path_14" data-name="Path 14" d="M223.807,507.092,194.86,563.67s6.579,27.631,17.1,30.263,55.262-34.21,55.262-34.21Z" transform="translate(675.944 -72.386)" opacity="0.1"/>
  <path id="Path_15" data-name="Path 15" d="M560.085,644.9l-8.551,35.272a2.2,2.2,0,0,0,.043,1.19l38.788,121.211a2.2,2.2,0,0,0,4.287-.423l5.366-47.219a2.2,2.2,0,0,0-.094-.931l-35.6-109.264a2.2,2.2,0,0,0-4.236.163Z" transform="translate(-13.473 -72.386)" fill="#2f2e41"/>
  <path id="Path_16" data-name="Path 16" d="M499.99,575.493,492.1,605.756l34.21,110.524,7.894-34.21Z" transform="translate(49.768 0)" fill="#f2f2f2"/>
  <path id="Path_17" data-name="Path 17" d="M559.116,812.35c-1.316,3.947-136.84-1.316-138.155-2.632a28.565,28.565,0,0,1-2.895-5.263c-1.237-2.632-2.368-5.263-2.368-5.263l5.263-42.6,134.208-4.763s3.355,36.1,4.039,52.631C559.379,808.626,559.379,811.56,559.116,812.35Z" transform="translate(163.007 -72.386)" fill="#2f2e41"/>
  <path id="Path_18" data-name="Path 18" d="M421.044,689.965l-2.631,36.841h59.209V689.965Z" transform="translate(180.029 0)" opacity="0.1"/>
  <path id="Path_19" data-name="Path 19" d="M364.82,701.806l-.353-.07,1.669,15.86H399.03v-15.79Z" transform="translate(312.567 0)" opacity="0.1"/>
  <path id="Path_20" data-name="Path 20" d="M556.748,812.35c-1.316,3.947-136.84-1.316-138.155-2.632a28.565,28.565,0,0,1-2.895-5.263H556.84C557.011,808.626,557.011,811.56,556.748,812.35Z" transform="translate(165.375 -72.386)" opacity="0.1"/>
  <ellipse id="Ellipse_1" data-name="Ellipse 1" cx="59.209" cy="59.209" rx="59.209" ry="59.209" transform="translate(820.805 297.867)" fill="#a0616a"/>
  <path id="Path_21" data-name="Path 21" d="M163.94,482.093s19.736,34.21,23.684,52.631,59.209-36.841,59.209-36.841L254.07,478.8s-51.973-24.342-48.025-44.078S163.94,482.093,163.94,482.093Z" transform="translate(720.022 -72.386)" fill="#a0616a"/>
  <path id="Path_22" data-name="Path 22" d="M459.787,584.722l-53.946,71.051L276.9,751.824s-93.419,19.737-72.367,34.21,81.577-13.158,81.577-13.158S416.367,703.141,444,674.194s78.946-77.63,78.946-77.63Z" transform="translate(413.649 -72.386)" fill="#a0616a"/>
  <path id="Path_23" data-name="Path 23" d="M263.956,695.247l-15.789,25L153.936,690.6c-20.676-6.5-43.348-4.111-61.687,7.442C75.8,708.4,65.276,724.851,88.96,749.193c47.368,48.683,78.946,22.368,78.946,22.368s159.207,75,185.523,38.157,27.631-55.262,27.631-55.262S279.745,691.3,263.956,695.247Z" transform="translate(681.847 -72.386)" fill="#2f2e41"/>
  <path id="Path_24" data-name="Path 24" d="M268.014,782.087s-42.1,27.631,7.895,40.789,86.84-5.263,86.84-5.263,43.42,0,43.42-22.368-14.473-25-14.473-25l-44.736,6.579S293.014,762.351,268.014,782.087Z" transform="translate(480.424 -72.386)" fill="#d0cde1"/>
  <path id="Path_25" data-name="Path 25" d="M204.865,414.568c-4.03,1.8-8.026,3.923-12.408,4.444s-9.371-1.008-11.444-4.9c-1.12-2.1-1.248-4.578-1.3-6.961-.158-7.225.364-15.036,4.943-20.627,2.914-3.559,7.167-5.8,10.184-9.274,2.161-2.488,3.6-5.5,5.148-8.411,5.866-11.017,14.551-21.606,26.622-24.782,5.04-1.326,10.328-1.262,15.539-1.188l30.4.429c4.919.069,9.914.15,14.623,1.574,9.784,2.958,16.908,11.186,23.432,19.054,4.881,5.887,9.775,11.834,13.439,18.547a65.079,65.079,0,0,1,7.714,31.887,29.833,29.833,0,0,1-1.093,8.437,46.82,46.82,0,0,1-3.316,7.284c-5.7,11.2-9.085,25.182-2.665,35.983-11.152-4.555-22.186-10.528-29.542-20.068-3.291-4.267-5.872-9.263-10.258-12.395s-11.532-3.4-14.346,1.193a12.857,12.857,0,0,0-1.451,6.022c-.205,3.45-.2,7.033-1.663,10.164s-4.947,5.658-8.273,4.721c-5.729-1.614-5.18-10.406-9.592-14.4-3.351-3.033-8.521-2.453-12.826-3.83-5.016-1.6-8.779-5.95-10.924-10.759-1.63-3.656-1.606-13.223-4.691-15.2C217.247,409.022,208.45,412.969,204.865,414.568Z" transform="translate(626.578 -72.386)" fill="#2f2e41"/>
  <path id="Path_26" data-name="Path 26" d="M145.684,472.562a15.616,15.616,0,0,0-8.128.021c-8.446,2.267-27.38,8.27-31.44,17.4-5.263,11.842-23.684,30.263-23.684,30.263s-25,25-19.736,42.1,25,36.841,25,36.841-5.263,81.577,21.052,102.63,36.841,6.579,36.841,26.315,81.577,81.577,97.367,43.42c0,0-7.895-71.051-5.263-96.051C240.286,650.871,236.489,497.145,145.684,472.562Z" transform="translate(833.108 -72.386)" fill="#d0cde1"/>
  <path id="Path_27" data-name="Path 27" d="M207.551,505.777s-80.262,59.209-65.788,84.209c0,0,48.683,23.684,59.209,22.368s51.315-47.367,61.841-51.315S278.6,486.04,207.551,505.777Z" transform="translate(729.042 -72.386)" fill="#d0cde1"/>
  <ellipse id="Ellipse_2" data-name="Ellipse 2" cx="65" cy="65" rx="65" ry="65" transform="translate(513 172.458)" fill="#f2f2f2"/>
  <path id="Path_28" data-name="Path 28" d="M732.649,225.427H1096.9V149.207H732.649Zm362.644-1.6H734.254v-73.01h361.04Z" transform="translate(-691.515 -72.386)" fill="#3f3d56"/>
  <rect id="Rectangle_1" data-name="Rectangle 1" width="362.644" height="74.615" transform="translate(67.61 92.065)" fill="#00c4cc"/>
  <ellipse id="Ellipse_3" data-name="Ellipse 3" cx="5.616" cy="5.616" rx="5.616" ry="5.616" transform="translate(653.883 9.628)" fill="#00c4cc"/>
  <ellipse id="Ellipse_4" data-name="Ellipse 4" cx="5.616" cy="5.616" rx="5.616" ry="5.616" transform="translate(634.627 9.628)" fill="#00c4cc"/>
  <ellipse id="Ellipse_5" data-name="Ellipse 5" cx="5.616" cy="5.616" rx="5.616" ry="5.616" transform="translate(615.372 9.628)" fill="#00c4cc"/>
  <path id="Path_29" data-name="Path 29" d="M462.487,512.052h675.545V72.386H462.487Zm673.94-1.6H464.092V73.991h672.336Z" transform="translate(-462.487 -72.386)" fill="#3f3d56"/>
  <rect id="Rectangle_2" data-name="Rectangle 2" width="673.94" height="1.605" transform="translate(0.802 24.338)" fill="#3f3d56"/>
  <path id="Path_30" data-name="Path 30" d="M480.138,91.641a6.418,6.418,0,1,0-6.418-6.418,6.418,6.418,0,0,0,6.418,6.418Zm0-11.232a4.814,4.814,0,1,1-4.814,4.814,4.814,4.814,0,0,1,4.814-4.814Z" transform="translate(177.756 -72.386)" fill="#3f3d56"/>
  <path id="Path_31" data-name="Path 31" d="M499.393,91.641a6.418,6.418,0,1,0-6.419-6.418,6.418,6.418,0,0,0,6.419,6.418Zm0-11.232a4.814,4.814,0,1,1-4.814,4.814,4.814,4.814,0,0,1,4.814-4.814Z" transform="translate(139.245 -72.386)" fill="#3f3d56"/>
  <path id="Path_32" data-name="Path 32" d="M518.649,91.641a6.418,6.418,0,1,0-6.418-6.418A6.418,6.418,0,0,0,518.649,91.641Zm0-11.232a4.814,4.814,0,1,1-4.814,4.814,4.814,4.814,0,0,1,4.814-4.814Z" transform="translate(100.735 -72.386)" fill="#3f3d56"/>
  <rect id="Rectangle_3" data-name="Rectangle 3" width="1.605" height="414.346" transform="translate(462.35 25.14)" fill="#3f3d56"/>
  <rect id="Rectangle_4" data-name="Rectangle 4" width="117.94" height="16.046" transform="translate(269.391 228.859)" fill="#f2f2f2"/>
  <rect id="Rectangle_5" data-name="Rectangle 5" width="117.94" height="16.046" transform="translate(84.058 228.859)" fill="#f2f2f2"/>
  <path id="Path_33" data-name="Path 33" d="M756.317,310.07H875.861V292.419H756.317Zm117.94-1.6H757.922V294.024H874.257Z" transform="translate(-494.147 -72.386)" fill="#3f3d56"/>
  <rect id="Rectangle_6" data-name="Rectangle 6" width="117.94" height="16.046" transform="translate(269.391 353.217)" fill="#f2f2f2"/>
  <path id="Path_34" data-name="Path 34" d="M756.317,434.428H875.861V416.778H756.317Zm117.94-1.6H757.922V418.382H874.257Z" transform="translate(-494.147 -72.386)" fill="#3f3d56"/>
  <rect id="Rectangle_7" data-name="Rectangle 7" width="303.273" height="16.046" transform="translate(83.656 289.433)" fill="#f2f2f2"/>
  <path id="Path_35" data-name="Path 35" d="M756.718,372.249H1061.6V354.6H756.718Zm303.273-1.6H758.323V356.2h301.668Z" transform="translate(-680.283 -72.386)" fill="#3f3d56"/>
  <path id="Path_36" data-name="Path 36" d="M941.651,310.07h119.544V292.419H941.651Zm117.94-1.6H943.255V294.024H1059.59Z" transform="translate(-864.814 -72.386)" fill="#3f3d56"/>
  <path id="Path_37" data-name="Path 37" d="M571.032,357.844a66,66,0,1,0-66-66A66,66,0,0,0,571.032,357.844Zm0-130a64,64,0,1,1-64,64,64,64,0,0,1,64-64Z" transform="translate(-4.032 -72.386)" fill="#3f3d56"/>
  <rect id="Rectangle_8" data-name="Rectangle 8" width="283" height="2" transform="translate(45 744.458)" fill="#3f3d56"/>
</svg>
