<svg xmlns="http://www.w3.org/2000/svg" width="144.482" height="144.482" viewBox="0 0 144.482 144.482">
  <path id="Path_6" data-name="Path 6" d="M139.455,3H11.027A8.027,8.027,0,0,0,3,11.027V139.455a8.027,8.027,0,0,0,8.027,8.027H80.137V91.535H61.355V69.622H80.137V53.569c0-18.7,11.4-28.9,28.094-28.9a134.3,134.3,0,0,1,16.856.963V45.141H113.529c-9.07,0-10.836,4.254-10.836,10.6V69.622h21.592l-2.809,21.833H102.693v56.027h36.843a8.027,8.027,0,0,0,7.947-8.027V11.027A8.027,8.027,0,0,0,139.455,3Z" transform="translate(-3 -3)" fill="#3b5998"/>
</svg>
