<svg xmlns="http://www.w3.org/2000/svg" width="141.755" height="144.498" viewBox="0 0 141.755 144.498">
  <g id="Group_2" data-name="Group 2" transform="translate(-3.002 -3.019)">
    <path id="Path_2" data-name="Path 2" d="M81.42,25.144A88.762,88.762,0,0,0,80.134,10.36H12V38.4H50.888A33.264,33.264,0,0,1,36.426,60.175V78.334H59.887A70.545,70.545,0,0,0,81.42,25.144Z" transform="translate(63.296 51.642)" fill="#4285f4" fill-rule="evenodd"/>
    <path id="Path_3" data-name="Path 3" d="M68.559,72.283a69.1,69.1,0,0,0,47.887-17.516L93.065,36.609a43.387,43.387,0,0,1-65-22.9H3.96V32.431a72.312,72.312,0,0,0,64.6,39.852Z" transform="translate(6.737 75.208)" fill="#34a853" fill-rule="evenodd"/>
    <path id="Path_4" data-name="Path 4" d="M34.8,54.16a43.468,43.468,0,0,1,0-27.479V7.96H10.7a72.312,72.312,0,0,0,0,64.92L34.8,54.16Z" transform="translate(0 34.759)" fill="#fbbc05" fill-rule="evenodd"/>
    <path id="Path_5" data-name="Path 5" d="M68.559,31.631A38.92,38.92,0,0,1,96.2,42.477l20.73-20.81A72.312,72.312,0,0,0,3.96,42.638l24.1,18.8A43.066,43.066,0,0,1,68.559,31.631Z" transform="translate(6.737 0)" fill="#ea4335" fill-rule="evenodd"/>
  </g>
</svg>
