<svg xmlns="http://www.w3.org/2000/svg" xmlns:xlink="http://www.w3.org/1999/xlink" width="338.006" height="459.97" viewBox="0 0 338.006 459.97">
  <defs>
    <linearGradient id="linear-gradient" x1="0.5" y1="0.262" x2="0.5" y2="0.982" gradientUnits="objectBoundingBox">
      <stop offset="0" stop-color="#00c4cc"/>
      <stop offset="1" stop-color="#7d2ae8"/>
    </linearGradient>
  </defs>
  <g id="movie" transform="translate(-0.479 0.009)">
    <path id="Path_1" data-name="Path 1" d="M334.68,77.531a7.6,7.6,0,0,0-7.816.059L261.48,116.324V106.066A36.4,36.4,0,0,0,234.633,71.09,57.962,57.962,0,0,0,127.922,29.082,57.923,57.923,0,0,0,19.766,57.938a58.046,58.046,0,0,0,2.2,14.938A36.3,36.3,0,0,0,.48,106.066v74.012a35.579,35.579,0,0,0,35.773,35.883h81.457L23.32,448.727a8.139,8.139,0,0,0,7.41,11.148,7.986,7.986,0,0,0,7.418-4.969l80.332-197.93V451.961a8,8,0,0,0,16,0V247.641L217.664,454.9a8,8,0,0,0,10.4,4.445,8.2,8.2,0,0,0,4.445-10.586l-93.355-232.8h85.887c19.984,0,36.441-15.9,36.441-35.883v-11.84l64.668,50.281A7.866,7.866,0,0,0,331,220.2a6.922,6.922,0,0,0,3.258-.816,7.763,7.763,0,0,0,4.219-7.184V84.48A7.791,7.791,0,0,0,334.68,77.531ZM178.121,16A41.938,41.938,0,1,1,136.18,57.938,41.939,41.939,0,0,1,178.121,16ZM77.7,16A41.938,41.938,0,1,1,35.766,57.938,41.94,41.94,0,0,1,77.7,16ZM225.039,199.961H36.254A19.558,19.558,0,0,1,16.48,180.078V106.066A20.187,20.187,0,0,1,28.2,87.6a57.731,57.731,0,0,0,99.773-.8A57.936,57.936,0,0,0,228.8,86.172a20.339,20.339,0,0,1,16.68,19.9V128.1c0,.793-1,1.625-1,2.484v21c0,.863,1,1.711,1,2.512v25.984C245.48,191.242,236.2,199.961,225.039,199.961Zm97.441-4.1-61-47.875V134.906l61-36.414Zm0,0" fill="url(#linear-gradient)"/>
    <path id="Path_2" data-name="Path 2" d="M102.48,128.961a8,8,0,0,0-8-8h-43a8,8,0,0,0-8,8v52a8,8,0,0,0,8,8h43a8,8,0,0,0,8-8Zm-16,44h-27v-36h27Zm0,0" fill="url(#linear-gradient)"/>
  </g>
</svg>
