<svg xmlns="http://www.w3.org/2000/svg" width="938.375" height="938.375" viewBox="0 0 938.375 938.375">
  <g id="play-button" transform="translate(2.5 2.5)">
    <path id="Path_19" data-name="Path 19" d="M388.552,250.043,46.314,16.7A15.547,15.547,0,0,0,22,29.549V496.236a15.548,15.548,0,0,0,24.314,12.849L388.552,275.742a15.543,15.543,0,0,0,0-25.7ZM53.112,466.788V59l299.069,203.9Z" transform="translate(320.237 203.795)" fill="#00c4cc" stroke="#00c4cc" stroke-width="5"/>
    <path id="Path_20" data-name="Path 20" d="M466.687,0C209.356,0,0,209.356,0,466.687S209.356,933.375,466.687,933.375,933.375,724.019,933.375,466.687,724.019,0,466.687,0Zm0,902.262c-240.173,0-435.575-195.4-435.575-435.575S226.514,31.112,466.687,31.112s435.575,195.4,435.575,435.575S706.86,902.262,466.687,902.262Z" fill="#00c4cc" stroke="#00c4cc" stroke-width="5"/>
  </g>
</svg>
