<svg xmlns="http://www.w3.org/2000/svg" xmlns:xlink="http://www.w3.org/1999/xlink" width="470.261" height="470.261" viewBox="0 0 470.261 470.261">
  <defs>
    <linearGradient id="linear-gradient" x1="0.5" y1="1" x2="0.536" y2="0.146" gradientUnits="objectBoundingBox">
      <stop offset="0" stop-color="#7d2ae8"/>
      <stop offset="1" stop-color="#00c4cc"/>
    </linearGradient>
  </defs>
  <path id="web" d="M387.828,425.752H403v15.17h-15.17Zm-30.339,15.17h15.17v-15.17h-15.17Zm-15.17-15.17h-15.17v15.17h15.17ZM403,395.413H327.149v15.17H403Zm45.509-348.9v15.17a22.755,22.755,0,0,1,0,45.509v15.17a22.755,22.755,0,0,1,0,45.509H327.149a22.755,22.755,0,1,1,0-45.509v-15.17a22.724,22.724,0,0,1-21.359-15.17h-8.98a22.782,22.782,0,0,0-22.755,22.755V274.055h15.17V251.3a37.967,37.967,0,0,1,37.924-37.924H335.5a37.924,37.924,0,1,1,0,15.17h-8.351A22.782,22.782,0,0,0,304.394,251.3v22.755H430.44L468.364,349.9H433.337V471.261H38.924V349.9H3.9l37.924-75.849H198.206V236.131a22.782,22.782,0,0,0-22.755-22.755H152.7v30.339h-98.6a37.924,37.924,0,0,1,0-75.849h60.679a38,38,0,0,1,37.158,30.339h23.521a37.967,37.967,0,0,1,37.924,37.924v37.924h15.17V114.773a22.782,22.782,0,0,0-22.755-22.755h-7.585v37.924A22.782,22.782,0,0,1,175.452,152.7H23.755A22.782,22.782,0,0,1,1,129.943V23.755A22.782,22.782,0,0,1,23.755,1h151.7a22.782,22.782,0,0,1,22.755,22.755V76.849h7.585a37.967,37.967,0,0,1,37.924,37.924V274.055h15.17V114.773A37.967,37.967,0,0,1,296.81,76.849h8.98a22.724,22.724,0,0,1,21.359-15.17V46.509a22.755,22.755,0,1,1,0-45.509H448.507a22.755,22.755,0,0,1,0,45.509ZM183.037,23.755a7.588,7.588,0,0,0-7.585-7.585H23.755a7.588,7.588,0,0,0-7.585,7.585V129.943a7.588,7.588,0,0,0,7.585,7.585h151.7a7.588,7.588,0,0,0,7.585-7.585ZM137.528,205.791a22.782,22.782,0,0,0-22.755-22.755H54.094a22.755,22.755,0,1,0,0,45.509h83.433ZM349.9,220.961a22.755,22.755,0,1,0,22.755-22.755A22.782,22.782,0,0,0,349.9,220.961ZM28.442,334.734H140.425l22.755-45.509H51.2ZM54.094,456.092H175.452V298.6L149.8,349.9H54.094ZM418.167,349.9H216.274l-25.652-51.3V456.092H418.167Zm2.9-60.679H202.894l22.755,45.509H443.819ZM327.149,31.339H448.507a7.585,7.585,0,1,0,0-15.17H327.149a7.585,7.585,0,1,0,0,15.17ZM448.507,137.528H327.149a7.585,7.585,0,1,0,0,15.17H448.507a7.585,7.585,0,1,0,0-15.17Zm-15.17-30.339H342.319v15.17h91.018Zm15.17-30.339H327.149a7.585,7.585,0,1,0,0,15.17H448.507a7.585,7.585,0,1,0,0-15.17Zm-15.17-30.339H342.319v15.17h91.018ZM122.358,31.339h45.509v91.018H31.339V76.849H61.679V61.679H92.018V46.509h30.339ZM76.849,76.849v30.339h15.17V76.849ZM46.509,107.188h15.17V92.018H46.509Zm75.849,0V61.679h-15.17v45.509Zm15.17,0H152.7V46.509h-15.17ZM46.509,213.376h15.17v-15.17H46.509Zm30.339,0h15.17v-15.17H76.849Zm30.339,0h15.17v-15.17h-15.17Zm303.394,91.018h-15.17v15.17h15.17Zm-30.339,0h-15.17v15.17h15.17Zm-30.339,0h-15.17v15.17H349.9ZM69.264,380.243h15.17v-15.17H69.264Zm0,30.339h15.17v-15.17H69.264Zm0,30.339h15.17v-15.17H69.264Z" transform="translate(-1 -1)" fill="url(#linear-gradient)"/>
</svg>
